<svg xmlns="http://www.w3.org/2000/svg" width="149" height="27" viewBox="0 0 148.21 26.55"><defs><style>.cls-1{fill:#ee3555;}</style></defs><g id="Layer_2" data-name="Layer 2"><g id="Layer_1-2" data-name="Layer 1"><polygon class="cls-1" points="4.8 0.7 0 0.7 0 25.85 12.64 25.85 12.64 20.31 4.8 20.31 4.8 0.7"/><polygon class="cls-1" points="14 25.85 28.31 25.85 28.31 20.31 20.54 20.31 20.54 15.98 27.88 15.98 27.88 10.44 20.54 10.44 20.54 6.24 28.31 6.24 28.31 0.7 14 0.7 14 25.85"/><polygon class="cls-1" points="31.01 25.85 45.32 25.85 45.32 20.31 37.55 20.31 37.55 15.98 44.89 15.98 44.89 10.44 37.55 10.44 37.55 6.24 45.32 6.24 45.32 0.7 31.01 0.7 31.01 25.85"/><path class="cls-1" d="M65.12,13.12A7.37,7.37,0,0,0,66.5,8.47a8.45,8.45,0,0,0-.52-3A7,7,0,0,0,64.45,3a7.09,7.09,0,0,0-2.59-1.68A10,10,0,0,0,58.2.7H48V25.85h6.54V16.18l6.24,9.67h8.14L61,15.54A7,7,0,0,0,65.12,13.12Zm-6.36-2a4.8,4.8,0,0,1-3,.8H54.56V5.74h1.23a4.73,4.73,0,0,1,3,.8,2.73,2.73,0,0,1,1,2.3A2.73,2.73,0,0,1,58.76,11.14Z"/><path class="cls-1" d="M80.94,10.51c-.53-.18-1.07-.35-1.62-.5a9.48,9.48,0,0,1-1.46-.55,3.63,3.63,0,0,1-1-.75,1.56,1.56,0,0,1-.4-1.11A1.85,1.85,0,0,1,77.21,6a3.34,3.34,0,0,1,2.06-.6,5.82,5.82,0,0,1,2.07.41,8.13,8.13,0,0,1,2.14,1.29L86.08,2A17.49,17.49,0,0,0,82.18.52,15.65,15.65,0,0,0,78.27,0a10.28,10.28,0,0,0-3.61.6,7.81,7.81,0,0,0-2.74,1.68,7.59,7.59,0,0,0-1.73,2.61,8.73,8.73,0,0,0-.62,3.38,7.13,7.13,0,0,0,.58,3.09,5.86,5.86,0,0,0,1.54,2,7.56,7.56,0,0,0,2.16,1.29c.82.32,1.64.62,2.49.88s1.32.47,1.82.67a5.39,5.39,0,0,1,1.21.65,2,2,0,0,1,.67.77,2.15,2.15,0,0,1,.2,1,2.25,2.25,0,0,1-.78,1.67,3.39,3.39,0,0,1-2.39.73,7,7,0,0,1-2.83-.63,11,11,0,0,1-2.9-1.94l-2.8,5.27a15.12,15.12,0,0,0,8.83,2.84,12.79,12.79,0,0,0,4.12-.62,8.81,8.81,0,0,0,3.07-1.73,7.33,7.33,0,0,0,1.9-2.69,8.91,8.91,0,0,0,.65-3.5,7,7,0,0,0-1.48-4.65A10.06,10.06,0,0,0,80.94,10.51Z"/><polygon class="cls-1" points="104.29 0.7 89.79 0.7 87.01 6.24 92.38 6.24 92.38 25.85 98.92 25.85 98.92 6.24 104.29 6.24 104.29 0.7"/><path class="cls-1" d="M127.75,3.84A13.18,13.18,0,0,0,123.33,1a15.94,15.94,0,0,0-11.22,0,13.25,13.25,0,0,0-4.39,2.82,13,13,0,0,0-2.86,4.21,13.18,13.18,0,0,0-1,5.22,13.11,13.11,0,0,0,1,5.22,13,13,0,0,0,2.86,4.22,13.25,13.25,0,0,0,4.39,2.82,15.94,15.94,0,0,0,11.22,0,13.18,13.18,0,0,0,4.42-2.82,12.75,12.75,0,0,0,2.89-4.22,13.11,13.11,0,0,0,1-5.22,13.18,13.18,0,0,0-1-5.22A12.81,12.81,0,0,0,127.75,3.84ZM124.27,16a6.9,6.9,0,0,1-1.55,2.2,7,7,0,0,1-2.27,1.45,7.37,7.37,0,0,1-5.44,0A6.9,6.9,0,0,1,111.23,16a6.66,6.66,0,0,1-.57-2.77,6.62,6.62,0,0,1,.57-2.76,6.85,6.85,0,0,1,1.53-2.2A7,7,0,0,1,115,6.85a7.25,7.25,0,0,1,7.71,1.46,6.9,6.9,0,0,1,1.55,2.2,6.61,6.61,0,0,1,.56,2.76A6.66,6.66,0,0,1,124.27,16Z"/><polygon class="cls-1" points="148.22 6.24 148.22 0.7 133.81 0.7 133.81 25.85 140.34 25.85 140.34 15.98 147.51 15.98 147.51 10.44 140.34 10.44 140.34 6.24 148.22 6.24"/></g></g></svg>
