<?xml version="1.0" encoding="utf-8"?>
<svg xmlns="http://www.w3.org/2000/svg" viewBox="0 0 24 24" fill="#000000"><path d="M 7 3 C 5.9069372 3 5 3.9069372 5 5 L 5 10 L 5 12 L 5 19 C 5 20.093063 5.9069372 21 7 21 L 13.306641 21 C 16.144017 21 18.699773 18.921043 18.974609 16.037109 C 19.20244 13.648447 17.867538 11.517024 15.875 10.550781 C 16.51497 9.843883 17 8.8296335 17 7.5 C 17 5.4166667 15.81078 4.0997257 14.697266 3.5429688 C 13.583752 2.9862117 12.5 3 12.5 3 L 7 3 z M 7 5 L 12.5 5 C 12.5 5 13.166248 5.013788 13.802734 5.3320312 C 14.43922 5.6502744 15 6.0833333 15 7.5 C 15 8.9166667 14.43922 9.3497256 13.802734 9.6679688 C 13.166248 9.9862117 12.5 10 12.5 10 L 7 10 L 7 5 z M 7 12 L 12.5 12 L 12.599609 12 L 13.5 12 C 15.558847 12 17.186168 13.731981 16.984375 15.847656 C 16.813211 17.643722 15.169265 19 13.306641 19 L 7 19 L 7 12 z" fill="#000000"/></svg>
